{"title":"Mr. Saik - De La Ghetto - Pa La Disco Voy (h264/mp4)","uid":7356584,"size":63098289,"categoryP":"video","categoryS":"music_videos","magnet":"?xt=urn:btih:29e41c41553992918ccc9f7736d641e28c93ccb4&amp;dn=Mr.+Saik+-+De+La+Ghetto+-+Pa+La+Disco+Voy+%28h264%2Fmp4%29&amp;tr=udp%3A%2F%2Ftracker.openbittorrent.com%3A80&amp;tr=udp%3A%2F%2Fopen.demonii.com%3A1337&amp;tr=udp%3A%2F%2Ftracker.coppersurfer.tk%3A6969&amp;tr=udp%3A%2F%2Fexodus.desync.com%3A6969","seeders":0,"leechers":1,"uploader":"MusicVideos-HQ","files":1,"time":1339792423,"description":"General\n\nFormat                           : MPEG-4\nFormat profile                   : Base Media\nCodec ID                         : isom\nFile size                        : 60.2 MiB\nDuration                         : 4mn 28s\nOverall bit rate                 : 1 880 Kbps\nEncoded date                     : UTC 2012-06-15 00:42:08\nTagged date                      : UTC 2012-06-15 00:42:08\n\nVideo\nID                               : 1\nFormat                           : AVC\nFormat/Info                      : Advanced Video Codec\nFormat profile                   : &lt;a class=&quot;__cf_email__&quot; href=&quot;/cdn-cgi/l/email-protection&quot; data-cfemail=&quot;c28aaba5aa828ef1ecf2&quot;&gt;[email&amp;#160;protected]&lt;/a&gt;&lt;script cf-hash='f9e31' type=&quot;text/javascript&quot;&gt;\n/* &lt;![CDATA[ */!function(){try{var t=&quot;currentScript&quot;in document?document.currentScript:function(){for(var t=document.getElementsByTagName(&quot;script&quot;),e=t.length;e--;)if(t[e].getAttribute(&quot;cf-hash&quot;))return t[e]}();if(t&amp;&amp;t.previousSibling){var e,r,n,i,c=t.previousSibling,a=c.getAttribute(&quot;data-cfemail&quot;);if(a){for(e=&quot;&quot;,r=parseInt(a.substr(0,2),16),n=2;a.length-n;n+=2)i=parseInt(a.substr(n,2),16)^r,e+=String.fromCharCode(i);e=document.createTextNode(e),c.parentNode.replaceChild(e,c)}}}catch(u){}}();/* ]]&gt; */&lt;/script&gt;\nFormat settings, CABAC           : Yes\nFormat settings, ReFrames        : 2 frames\nCodec ID                         : avc1\nCodec ID/Info                    : Advanced Video Coding\nDuration                         : 4mn 28s\nBit rate mode                    : Variable\nBit rate                         : 1 795 Kbps\nMaximum bit rate                 : 3 822 Kbps\nWidth                            : 720 pixels\nHeight                           : 480 pixels\nDisplay aspect ratio             : 16:9\nOriginal display aspect ratio    : 16:9\nFrame rate mode                  : Constant\nFrame rate                       : 24.000 fps\nStandard                         : NTSC\nColor space                      : YUV\nChroma subsampling               : 4:2:0\nBit depth                        : 8 bits\nScan type                        : Progressive\nBits/(Pixel*Frame)               : 0.216\nStream size                      : 57.8 MiB (96%)\n\n\nAudio\nID                               : 2\nFormat                           : AAC\nFormat/Info                      : Advanced Audio Codec\nFormat profile                   : LC\nCodec ID                         : 40\nDuration                         : 4mn 28s\nBit rate mode                    : Variable\nBit rate                         : 69.0 Kbps\nMaximum bit rate                 : 82.5 Kbps\nChannel(s)                       : 2 channels\nChannel positions                : Front: L R\nSampling rate                    : 44.1 KHz\nCompression mode                 : Lossy\nStream size                      : 2.21 MiB (4%)","torrent":{"xt":"urn:btih:29e41c41553992918ccc9f7736d641e28c93ccb4","amp;dn":"Mr.+Saik+-+De+La+Ghetto+-+Pa+La+Disco+Voy+%28h264%2Fmp4%29","amp;tr":["udp%3A%2F%2Ftracker.openbittorrent.com%3A80","udp%3A%2F%2Fopen.demonii.com%3A1337","udp%3A%2F%2Ftracker.coppersurfer.tk%3A6969","udp%3A%2F%2Fexodus.desync.com%3A6969"],"infoHash":"29e41c41553992918ccc9f7736d641e28c93ccb4","infoHashBuffer":{"type":"Buffer","data":[41,228,28,65,85,57,146,145,140,204,159,119,54,214,65,226,140,147,204,180]},"announce":[],"urlList":[]}}